<?xml version="1.0" standalone="no"?>
<!DOCTYPE svg PUBLIC "-//W3C//DTD SVG 20010904//EN"
 "http://www.w3.org/TR/2001/REC-SVG-20010904/DTD/svg10.dtd">
<svg version="1.0" xmlns="http://www.w3.org/2000/svg"
 width="300.000000pt" height="300.000000pt" viewBox="0 0 300.000000 300.000000"
 preserveAspectRatio="xMidYMid meet">
<metadata>
Created by potrace 1.10, written by Peter Selinger 2001-2011
</metadata>
<g transform="translate(0.000000,300.000000) scale(0.100000,-0.100000)"
fill="#000000" stroke="none">
<path d="M427 2552 c-42 -42 -77 -82 -77 -87 0 -6 58 -69 130 -140 72 -71 130
-135 130 -142 0 -6 -46 -56 -101 -110 -96 -92 -210 -231 -274 -333 -51 -80
-125 -230 -125 -251 0 -18 8 -39 41 -99 4 -8 18 -35 31 -60 77 -154 272 -391
423 -515 112 -91 209 -151 337 -208 88 -39 106 -46 158 -61 153 -43 203 -50
386 -49 236 0 334 21 586 121 14 6 29 16 33 21 19 31 55 6 200 -139 82 -82
154 -150 160 -150 14 0 165 153 165 167 0 15 -2098 2113 -2113 2113 -7 0 -47
-35 -90 -78z m500 -684 c62 -62 113 -119 113 -128 0 -8 -9 -37 -19 -65 -45
-119 -51 -202 -21 -318 40 -160 193 -311 360 -357 106 -30 240 -19 332 27 15
7 35 13 45 13 10 0 61 -43 113 -95 77 -77 92 -97 80 -105 -8 -5 -20 -10 -26
-10 -7 0 -25 -7 -40 -15 -16 -8 -38 -15 -49 -15 -12 0 -25 -4 -30 -9 -34 -32
-370 -48 -502 -24 -80 15 -232 68 -303 106 -150 80 -312 216 -408 341 -51 67
-62 81 -77 99 -19 21 -105 167 -105 177 0 16 59 109 134 210 92 125 246 280
279 280 6 0 62 -51 124 -112z m478 -468 c76 -76 135 -143 131 -147 -4 -4 -35
-7 -69 -6 -50 2 -70 8 -108 34 -59 41 -105 110 -112 170 -6 46 0 89 12 89 3 0
69 -63 146 -140z"/>
<path d="M1355 2480 c-81 -6 -226 -33 -247 -46 -21 -13 2 -46 93 -133 91 -86
101 -92 127 -85 38 13 295 10 367 -3 262 -48 542 -223 713 -447 26 -34 51 -66
57 -73 25 -30 33 -42 78 -116 26 -43 47 -82 47 -87 0 -9 -52 -98 -72 -125 -4
-5 -42 -56 -84 -113 l-77 -103 79 -83 c43 -46 86 -84 95 -85 19 -1 47 29 126
134 70 93 108 152 140 215 13 25 27 52 32 60 54 97 54 103 0 200 -5 8 -19 35
-32 60 -109 213 -349 480 -547 609 -91 59 -229 131 -253 131 -7 0 -21 7 -31
15 -11 8 -30 15 -43 15 -12 0 -37 6 -55 14 -94 40 -327 61 -513 46z"/>
<path d="M1536 1992 c-10 -9 26 -50 216 -240 189 -188 231 -226 240 -217 9 9
-28 132 -57 189 -40 80 -134 173 -215 213 -62 31 -175 65 -184 55z"/>
</g>
</svg>
