<svg width="34" height="34" viewBox="0 0 34 34" fill="none" xmlns="http://www.w3.org/2000/svg">
<g id="facebook">
<path d="M28.9 0H5.1C2.28335 0 0 2.28335 0 5.1V28.9C0 31.7167 2.28335 34 5.1 34H28.9C31.7167 34 34 31.7167 34 28.9V5.1C34 2.28335 31.7167 0 28.9 0Z" fill="#1877F2"/>
<path d="M23.6141 21.9141L24.3711 17H19.6562V13.8125C19.6562 12.4711 20.3137 11.1562 22.4254 11.1562H24.5703V6.97266C24.5703 6.97266 22.6246 6.64062 20.7652 6.64062C16.8805 6.64062 14.3438 8.99141 14.3438 13.2547V17H10.0273V21.9141H14.3438V34H19.6562V21.9141H23.6141Z" fill="white"/>
</g>
</svg>
