<?xml version="1.0" encoding="UTF-8"?>
<svg version="1.1" xmlns="http://www.w3.org/2000/svg" width="512" height="512">
<path d="M0 0 C0.82773926 0.18804199 1.65547852 0.37608398 2.50830078 0.56982422 C40.79345201 9.64476955 74.42967068 34.03045418 95.43505859 67.28222656 C107.92889605 87.70307652 115.68304903 109.31102924 119 133 C119.13148438 133.93457031 119.26296875 134.86914062 119.3984375 135.83203125 C120.05138376 141.57619361 120.12889547 147.34900664 120.1875 153.125 C120.20176025 154.34473511 120.20176025 154.34473511 120.21630859 155.58911133 C120.20735134 159.72044318 119.97407485 163.59623712 119.1640625 167.65234375 C118.3194485 171.91925348 117.69449542 175.63174053 118 180 C120.36366639 183.28896066 122.86142384 185.33387369 126.09765625 187.75390625 C133.50664844 193.48764853 136.89609035 203.12130364 139 212 C139.5503281 217.59950278 139.54880049 223.15556005 139.51757812 228.77734375 C139.52300988 230.43450533 139.5301384 232.09166207 139.53881836 233.74880981 C139.55692963 238.21582693 139.55003507 242.68247121 139.53730202 247.14949417 C139.52711067 251.84438261 139.53658462 256.53924105 139.54284668 261.23413086 C139.55010533 269.11545489 139.54058235 276.99662854 139.52148438 284.87792969 C139.49971907 293.96438748 139.50677171 303.05048614 139.52879 312.13693523 C139.54699497 319.96578112 139.54947749 327.79451947 139.53903532 335.62337971 C139.53282832 340.28721813 139.53188724 344.95088825 139.54518127 349.61471558 C139.55681371 354.0013074 139.54858048 358.38744029 139.52560425 362.773983 C139.52035635 364.37505205 139.52176295 365.97616033 139.53065491 367.57721329 C139.6072541 382.78177002 136.40007909 396.2980326 125.75 407.75 C110.61348775 421.79589019 93.10321414 421.58672612 73.6796875 421.51757812 C71.11761071 421.52300465 68.55553704 421.53013027 65.99346924 421.53881836 C59.78176203 421.55510833 53.57030852 421.55280168 47.35859823 421.5411678 C42.30608634 421.5321002 37.25362855 421.53092378 32.20111084 421.53526306 C31.47948096 421.53587599 30.75785108 421.53648893 30.01435363 421.53712043 C28.54795407 421.53839945 27.08155452 421.53969631 25.61515498 421.5410108 C11.8944503 421.55239182 -1.82614714 421.53934194 -15.54683423 421.51780933 C-27.29625044 421.49994058 -39.04550852 421.50304539 -50.79492188 421.52148438 C-64.46961757 421.54293505 -78.1442195 421.55129341 -91.81892967 421.53903532 C-93.27965671 421.53776125 -94.74038377 421.53650376 -96.20111084 421.53526306 C-96.91964363 421.53464596 -97.63817642 421.53402886 -98.37848294 421.53339306 C-103.41952033 421.52995271 -108.46049778 421.53573996 -113.50152588 421.54518127 C-120.29788129 421.55763146 -127.09389387 421.54865095 -133.8902359 421.52560425 C-136.37779498 421.52033556 -138.86537927 421.5217992 -141.35292816 421.53065491 C-159.58706197 421.58956161 -175.64544046 420.83829215 -189.75 407.75 C-198.14380599 398.78208936 -203.11100212 387.37444901 -203.14044189 375.13241577 C-203.14341302 374.44184983 -203.14638414 373.75128389 -203.1494453 373.0397917 C-203.15811546 370.72622253 -203.15963913 368.41270522 -203.16113281 366.09912109 C-203.16576229 364.4398996 -203.17078712 362.78067916 -203.17617798 361.12145996 C-203.18929407 356.61290511 -203.19574574 352.10436515 -203.20018864 347.5957942 C-203.20312146 344.77683913 -203.20722673 341.95788812 -203.21169281 339.13893509 C-203.22536747 330.31296666 -203.23503351 321.48700751 -203.2388947 312.66102922 C-203.24337142 302.48467957 -203.26090152 292.30846451 -203.2898953 282.13215578 C-203.31154436 274.25936974 -203.32160075 266.38662146 -203.32293582 258.51380599 C-203.32398181 253.81526681 -203.32984529 249.11685415 -203.34775543 244.41834641 C-203.36429126 239.99421354 -203.36636498 235.57030153 -203.35761642 231.14614868 C-203.35684891 229.52810701 -203.3611508 227.9100532 -203.37107468 226.29204178 C-203.46929482 209.27075917 -199.72036604 197.75309539 -188.0859375 185.06640625 C-186 183 -186 183 -183 181 C-182.9408642 178.4696101 -183.05799632 176.19125069 -183.3125 173.6875 C-183.43316354 172.13187366 -183.54883132 170.57585377 -183.66015625 169.01953125 C-183.71961426 168.19791504 -183.77907227 167.37629883 -183.84033203 166.52978516 C-185.67365415 137.48256224 -180.87668226 109.17465966 -168 83 C-167.69336426 82.36900391 -167.38672852 81.73800781 -167.07080078 81.08789062 C-159.89232112 66.48532236 -150.68501538 54.09012744 -139.37695312 42.42822266 C-138.15503033 41.16080274 -136.95836774 39.86913701 -135.765625 38.57421875 C-102.31972814 3.17940685 -46.66751993 -10.62610404 0 0 Z M-103.07739258 86.28271484 C-115.18575806 100.18499298 -122.35032267 117.12442984 -126 135 C-126.1959375 135.8971875 -126.391875 136.794375 -126.59375 137.71875 C-127.22123874 142.78692829 -127.14356189 147.83607501 -127.125 152.9375 C-127.12886719 153.99646484 -127.13273437 155.05542969 -127.13671875 156.14648438 C-127.74987649 165.0778589 -127.74987649 165.0778589 -125 173 C-122.59901416 173.09987909 -120.22673731 173.1344229 -117.82519531 173.12698364 C-117.06550571 173.12854363 -116.30581612 173.13010362 -115.52310562 173.13171089 C-112.95809279 173.1357238 -110.39313835 173.13253013 -107.828125 173.12939453 C-105.99711065 173.13074844 -104.16609657 173.13252832 -102.33508301 173.13470459 C-97.34762408 173.13928012 -92.36018574 173.13748887 -87.37272644 173.1343255 C-82.1654759 173.13180252 -76.95822717 173.13413927 -71.75097656 173.13571167 C-63.00455406 173.13753355 -54.25813998 173.13512658 -45.51171875 173.13037109 C-35.3841751 173.12492844 -25.25665159 173.12669108 -15.12910843 173.1321975 C-6.45058647 173.13672812 2.22792942 173.13737943 10.90645218 173.13475883 C16.09710266 173.13319577 21.28774367 173.13300307 26.47839355 173.13629532 C31.35711108 173.13917329 36.23580252 173.13719971 41.11451721 173.13140106 C42.91048642 173.13007306 44.70645779 173.13046825 46.50242615 173.13266373 C48.94337935 173.13537368 51.38424761 173.13199603 53.82519531 173.12698364 C54.54531673 173.12921436 55.26543816 173.13144509 56.00738144 173.13374341 C59.28522626 173.40276567 59.28522626 173.40276567 62 172 C66.89770896 146.21706069 60.90375388 119.0321023 47 97 C32.10936883 75.22550327 10.45035999 59.42737947 -15.83325195 54.46508789 C-49.22016499 49.56168265 -80.48750543 61.37154121 -103.07739258 86.28271484 Z M-58 242 C-59.0725 242.763125 -60.145 243.52625 -61.25 244.3125 C-69.61830803 252.49061921 -75.0137788 263.85331008 -75.25 275.625 C-75.09657057 288.51307234 -69.83106029 298.36412392 -61.4140625 307.703125 C-59.07142716 310.14753458 -59.07142716 310.14753458 -55.890625 311.60131836 C-53 314 -53 314 -52.29052734 317.9230957 C-52.27661287 319.50733543 -52.29364681 321.09204497 -52.3359375 322.67578125 C-52.33171783 323.5191655 -52.32749817 324.36254974 -52.32315063 325.23149109 C-52.31228627 327.92605547 -52.34033688 330.61816444 -52.375 333.3125 C-52.39911519 335.99579765 -52.41418929 338.67797326 -52.40542603 341.3613739 C-52.40088204 343.0287671 -52.41529138 344.69635684 -52.45175171 346.36335754 C-52.4487566 352.88392784 -50.66171043 356.94120456 -46.32421875 361.92578125 C-41.92774457 365.65071761 -37.9856999 368.01550856 -31.9921875 367.9921875 C-25.6317647 367.43595281 -21.02262005 365.38209798 -16.75 360.5625 C-12.31561922 355.23409084 -11.76049091 351.21583465 -11.90234375 344.32421875 C-11.90640869 342.59180054 -11.90829319 340.8593761 -11.90820312 339.12695312 C-11.9162986 336.40711984 -11.93744183 333.69018572 -11.99633789 330.97094727 C-12.29316852 315.77183823 -12.29316852 315.77183823 -9.04833984 311.32592773 C-6.77216294 309.57475568 -4.54442538 308.31287828 -2 307 C6.66208188 298.93274912 10.79296554 287.8906892 11.375 276.25 C11.06487478 264.48348416 6.01321077 252.9136543 -2.359375 244.6796875 C-18.93112028 230.73265964 -40.14156849 229.28115351 -58 242 Z " fill="#000000" transform="translate(288,40)"/>
</svg>
