<svg width="22" height="22" viewBox="0 0 22 22" fill="none" xmlns="http://www.w3.org/2000/svg">
<g id="Vector">
<path d="M8.48646 11C9.75256 11 10.6865 9.83263 10.6865 8.25C10.6865 6.66738 9.75256 5.5 8.48646 5.5C7.22036 5.5 6.28646 6.66738 6.28646 8.25C6.28646 9.83263 7.21926 11 8.48646 11Z" fill="black" fill-opacity="0.6"/>
<path d="M19.8 0H2.2C0.9867 0 0 1.15637 0 2.57812V19.4219C0 20.8436 0.9867 22 2.2 22H19.8C21.0133 22 22 20.8436 22 19.4219V2.57812C22 1.15637 21.0133 0 19.8 0ZM19.8 19.25L2.2 19.2349V2.75L19.8 2.76513V19.25Z" fill="black" fill-opacity="0.6"/>
<path d="M13.2 6.875H17.6V9.625H13.2V6.875ZM14.3 12.375H17.6V15.125H14.3V12.375ZM12.573 15.862C12.573 13.9728 10.7294 12.0312 8.4865 12.0312C6.2436 12.0312 4.4 13.9728 4.4 15.862V16.5H12.573V15.862Z" fill="black" fill-opacity="0.6"/>
</g>
</svg>
