<svg width="21" height="22" viewBox="0 0 21 22" fill="none" xmlns="http://www.w3.org/2000/svg">
<path d="M15.25 3H17.625C18.2549 3 18.859 3.21071 19.3044 3.58579C19.7498 3.96086 20 4.46957 20 5V19C20 19.5304 19.7498 20.0391 19.3044 20.4142C18.859 20.7893 18.2549 21 17.625 21H11.0938M1 12.5V5C1 4.46957 1.25022 3.96086 1.69562 3.58579C2.14102 3.21071 2.74511 3 3.375 3H5.75M6.9375 1H14.0625C14.7183 1 15.25 1.44772 15.25 2V4C15.25 4.55228 14.7183 5 14.0625 5H6.9375C6.28166 5 5.75 4.55228 5.75 4V2C5.75 1.44772 6.28166 1 6.9375 1ZM12.1364 14.626C12.3706 14.4288 12.5564 14.1946 12.6832 13.9369C12.8099 13.6792 12.8752 13.4029 12.8752 13.124C12.8752 12.8451 12.8099 12.5688 12.6832 12.3111C12.5564 12.0534 12.3706 11.8192 12.1364 11.622C11.9021 11.4248 11.6241 11.2683 11.318 11.1615C11.012 11.0548 10.684 10.9999 10.3527 10.9999C10.0215 10.9999 9.69349 11.0548 9.38746 11.1615C9.08142 11.2683 8.80335 11.4248 8.56912 11.622L2.61975 16.634C2.33742 16.8716 2.13076 17.1653 2.01887 17.488L1.02494 20.358C0.995134 20.444 0.993347 20.5353 1.01976 20.6221C1.04618 20.7089 1.09983 20.7882 1.17509 20.8516C1.25036 20.9149 1.34447 20.9601 1.44758 20.9824C1.55069 21.0046 1.659 21.0031 1.76119 20.978L5.16931 20.141C5.55248 20.0468 5.90126 19.8728 6.18344 19.635L12.1364 14.626Z" stroke="black" stroke-width="2" stroke-linecap="round" stroke-linejoin="round"/>
</svg>
