<svg width="12" height="10" viewBox="0 0 12 10" fill="none" xmlns="http://www.w3.org/2000/svg">
<g id="Vector">
<path fill-rule="evenodd" clip-rule="evenodd" d="M5.70673 9.69452C5.5192 9.88199 5.26489 9.9873 4.99973 9.9873C4.73456 9.9873 4.48025 9.88199 4.29273 9.69452L0.292725 5.69452C0.105254 5.50699 -6.10352e-05 5.25268 -6.10352e-05 4.98752C-6.10352e-05 4.72235 0.105254 4.46805 0.292725 4.28052L4.29273 0.280518C4.48133 0.0983595 4.73393 -0.00243482 4.99613 -0.000156403C5.25832 0.00212202 5.50914 0.107292 5.69454 0.2927C5.87995 0.478108 5.98512 0.728921 5.9874 0.991117C5.98968 1.25331 5.88888 1.50592 5.70673 1.69452L2.41372 4.98752L5.70673 8.28052C5.8942 8.46805 5.99951 8.72235 5.99951 8.98752C5.99951 9.25268 5.8942 9.50699 5.70673 9.69452Z" fill="black"/>
<path fill-rule="evenodd" clip-rule="evenodd" d="M11.7067 9.69452C11.5192 9.88199 11.2649 9.9873 10.9997 9.9873C10.7346 9.9873 10.4803 9.88199 10.2927 9.69452L6.29273 5.69452C6.10525 5.50699 5.99994 5.25268 5.99994 4.98752C5.99994 4.72235 6.10525 4.46805 6.29273 4.28052L10.2927 0.280518C10.4813 0.0983595 10.7339 -0.00243482 10.9961 -0.000156403C11.2583 0.00212202 11.5091 0.107292 11.6945 0.2927C11.88 0.478108 11.9851 0.728921 11.9874 0.991117C11.9897 1.25331 11.8889 1.50592 11.7067 1.69452L8.41372 4.98752L11.7067 8.28052C11.8942 8.46805 11.9995 8.72235 11.9995 8.98752C11.9995 9.25268 11.8942 9.50699 11.7067 9.69452Z" fill="black"/>
</g>
</svg>
