<svg width="19" height="19" viewBox="0 0 19 19" fill="none" xmlns="http://www.w3.org/2000/svg">
<path d="M17.5 15.6471C17.8852 15.6473 18.2556 15.8131 18.5344 16.1102C18.8132 16.4073 18.979 16.8129 18.9975 17.243C19.016 17.673 18.8858 18.0945 18.6338 18.4202C18.3818 18.7458 18.0274 18.9506 17.644 18.9922L17.5 19H1.5C1.11478 18.9998 0.744405 18.8339 0.465613 18.5368C0.186821 18.2397 0.020988 17.8341 0.00247574 17.4041C-0.0160365 16.9741 0.114192 16.5525 0.366175 16.2269C0.618159 15.9012 0.972581 15.6964 1.356 15.6549L1.5 15.6471H17.5ZM17.5 7.82353C17.8978 7.82353 18.2794 8.00016 18.5607 8.31456C18.842 8.62895 19 9.05537 19 9.5C19 9.94463 18.842 10.371 18.5607 10.6854C18.2794 10.9998 17.8978 11.1765 17.5 11.1765H1.5C1.10218 11.1765 0.720644 10.9998 0.43934 10.6854C0.158035 10.371 0 9.94463 0 9.5C0 9.05537 0.158035 8.62895 0.43934 8.31456C0.720644 8.00016 1.10218 7.82353 1.5 7.82353H17.5ZM17.5 0C17.8978 0 18.2794 0.176628 18.5607 0.491027C18.842 0.805426 19 1.23184 19 1.67647C19 2.1211 18.842 2.54752 18.5607 2.86191C18.2794 3.17631 17.8978 3.35294 17.5 3.35294H1.5C1.10218 3.35294 0.720644 3.17631 0.43934 2.86191C0.158035 2.54752 0 2.1211 0 1.67647C0 1.23184 0.158035 0.805426 0.43934 0.491027C0.720644 0.176628 1.10218 0 1.5 0H17.5Z" fill="black"/>
</svg>
