<svg width="19" height="19" viewBox="0 0 19 19" fill="none" xmlns="http://www.w3.org/2000/svg">
<path fill-rule="evenodd" clip-rule="evenodd" d="M6.33333 0C5.21353 0 4.13959 0.500445 3.34777 1.39124C2.55595 2.28204 2.11111 3.49022 2.11111 4.75C2.11111 6.00978 2.55595 7.21796 3.34777 8.10876C4.13959 8.99956 5.21353 9.5 6.33333 9.5C7.45314 9.5 8.52708 8.99956 9.3189 8.10876C10.1107 7.21796 10.5556 6.00978 10.5556 4.75C10.5556 3.49022 10.1107 2.28204 9.3189 1.39124C8.52708 0.500445 7.45314 0 6.33333 0ZM4.22222 10.6875C3.10242 10.6875 2.02848 11.1879 1.23666 12.0787C0.44484 12.9695 0 14.1777 0 15.4375V16.625C0 17.2549 0.22242 17.859 0.61833 18.3044C1.01424 18.7498 1.55121 19 2.11111 19H10.5556C11.1155 19 11.6524 18.7498 12.0483 18.3044C12.4442 17.859 12.6667 17.2549 12.6667 16.625V15.4375C12.6667 14.1777 12.2218 12.9695 11.43 12.0787C10.6382 11.1879 9.56425 10.6875 8.44444 10.6875H4.22222ZM12.6667 9.5C12.6667 9.18506 12.7779 8.88301 12.9758 8.66031C13.1738 8.43761 13.4423 8.3125 13.7222 8.3125H14.7778V7.125C14.7778 6.81006 14.889 6.50801 15.0869 6.28531C15.2849 6.06261 15.5534 5.9375 15.8333 5.9375C16.1133 5.9375 16.3818 6.06261 16.5797 6.28531C16.7777 6.50801 16.8889 6.81006 16.8889 7.125V8.3125H17.9444C18.2244 8.3125 18.4929 8.43761 18.6908 8.66031C18.8888 8.88301 19 9.18506 19 9.5C19 9.81494 18.8888 10.117 18.6908 10.3397C18.4929 10.5624 18.2244 10.6875 17.9444 10.6875H16.8889V11.875C16.8889 12.1899 16.7777 12.492 16.5797 12.7147C16.3818 12.9374 16.1133 13.0625 15.8333 13.0625C15.5534 13.0625 15.2849 12.9374 15.0869 12.7147C14.889 12.492 14.7778 12.1899 14.7778 11.875V10.6875H13.7222C13.4423 10.6875 13.1738 10.5624 12.9758 10.3397C12.7779 10.117 12.6667 9.81494 12.6667 9.5Z" fill="black"/>
</svg>
