<svg width="36" height="36" viewBox="0 0 36 36" fill="none" xmlns="http://www.w3.org/2000/svg">
<g id="Vector">
<path fill-rule="evenodd" clip-rule="evenodd" d="M6 15C5.46957 15 4.96086 15.2107 4.58579 15.5858C4.21071 15.9609 4 16.4696 4 17V19C4 19.5304 4.21071 20.0391 4.58579 20.4142C4.96086 20.7893 5.46957 21 6 21H8C8.53043 21 9.03914 20.7893 9.41421 20.4142C9.78929 20.0391 10 19.5304 10 19V17C10 16.4696 9.78929 15.9609 9.41421 15.5858C9.03914 15.2107 8.53043 15 8 15H6ZM6 17V19H8V17H6ZM12 17C12 16.4696 12.2107 15.9609 12.5858 15.5858C12.9609 15.2107 13.4696 15 14 15H16C16.5304 15 17.0391 15.2107 17.4142 15.5858C17.7893 15.9609 18 16.4696 18 17V19C18 19.5304 17.7893 20.0391 17.4142 20.4142C17.0391 20.7893 16.5304 21 16 21H14C13.4696 21 12.9609 20.7893 12.5858 20.4142C12.2107 20.0391 12 19.5304 12 19V17ZM14 17H16V19H14V17ZM22 15C21.4696 15 20.9609 15.2107 20.5858 15.5858C20.2107 15.9609 20 16.4696 20 17V19C20 19.5304 20.2107 20.0391 20.5858 20.4142C20.9609 20.7893 21.4696 21 22 21H24C24.5304 21 25.0391 20.7893 25.4142 20.4142C25.7893 20.0391 26 19.5304 26 19V17C26 16.4696 25.7893 15.9609 25.4142 15.5858C25.0391 15.2107 24.5304 15 24 15H22ZM22 17V19H24V17H22ZM4 25C4 24.4696 4.21071 23.9609 4.58579 23.5858C4.96086 23.2107 5.46957 23 6 23H8C8.53043 23 9.03914 23.2107 9.41421 23.5858C9.78929 23.9609 10 24.4696 10 25V27C10 27.5304 9.78929 28.0391 9.41421 28.4142C9.03914 28.7893 8.53043 29 8 29H6C5.46957 29 4.96086 28.7893 4.58579 28.4142C4.21071 28.0391 4 27.5304 4 27V25ZM8 25V27H6V25H8ZM14 23C13.4696 23 12.9609 23.2107 12.5858 23.5858C12.2107 23.9609 12 24.4696 12 25V27C12 27.5304 12.2107 28.0391 12.5858 28.4142C12.9609 28.7893 13.4696 29 14 29H16C16.5304 29 17.0391 28.7893 17.4142 28.4142C17.7893 28.0391 18 27.5304 18 27V25C18 24.4696 17.7893 23.9609 17.4142 23.5858C17.0391 23.2107 16.5304 23 16 23H14ZM16 25H14V27H16V25Z" fill="black"/>
<path d="M30 26.5C30 26.2348 29.8946 25.9804 29.7071 25.7929C29.5196 25.6054 29.2652 25.5 29 25.5C28.7348 25.5 28.4804 25.6054 28.2929 25.7929C28.1054 25.9804 28 26.2348 28 26.5V29.414L29.293 30.707C29.4816 30.8892 29.7342 30.99 29.9964 30.9877C30.2586 30.9854 30.5094 30.8802 30.6948 30.6948C30.8802 30.5094 30.9854 30.2586 30.9877 29.9964C30.99 29.7342 30.8892 29.4816 30.707 29.293L30 28.586V26.5Z" fill="black"/>
<path fill-rule="evenodd" clip-rule="evenodd" d="M6 1C6 0.734784 6.10536 0.48043 6.29289 0.292893C6.48043 0.105357 6.73478 0 7 0C7.26522 0 7.51957 0.105357 7.70711 0.292893C7.89464 0.48043 8 0.734784 8 1V6C8 6.26522 8.10536 6.51957 8.29289 6.70711C8.48043 6.89464 8.73478 7 9 7C9.26522 7 9.51957 6.89464 9.70711 6.70711C9.89464 6.51957 10 6.26522 10 6V3H20V1C20 0.734784 20.1054 0.48043 20.2929 0.292893C20.4804 0.105357 20.7348 0 21 0C21.2652 0 21.5196 0.105357 21.7071 0.292893C21.8946 0.48043 22 0.734784 22 1V6C22 6.26522 22.1054 6.51957 22.2929 6.70711C22.4804 6.89464 22.7348 7 23 7C23.2652 7 23.5196 6.89464 23.7071 6.70711C23.8946 6.51957 24 6.26522 24 6V3H27C27.7956 3 28.5587 3.31607 29.1213 3.87868C29.6839 4.44129 30 5.20435 30 6V22.07C31.7515 22.3232 33.3422 23.2303 34.452 24.6088C35.5618 25.9874 36.1083 27.7351 35.9816 29.5003C35.8548 31.2655 35.0643 32.9172 33.769 34.1231C32.4737 35.329 30.7697 35.9996 29 36C27.8713 36.0009 26.7593 35.7285 25.7588 35.2061C24.7583 34.6836 23.8993 33.9267 23.255 33H3C2.20435 33 1.44129 32.6839 0.87868 32.1213C0.316071 31.5587 0 30.7956 0 30V6C0 5.20435 0.316071 4.44129 0.87868 3.87868C1.44129 3.31607 2.20435 3 3 3H6V1ZM22 29C21.9996 27.3164 22.6059 25.6891 23.7079 24.4163C24.8099 23.1435 26.3337 22.3105 28 22.07V12H2V30C2 30.2652 2.10536 30.5196 2.29289 30.7071C2.48043 30.8946 2.73478 31 3 31H22.29C22.0971 30.3509 21.9994 29.6772 22 29ZM34 29C34 30.3261 33.4732 31.5979 32.5355 32.5355C31.5979 33.4732 30.3261 34 29 34C27.6739 34 26.4021 33.4732 25.4645 32.5355C24.5268 31.5979 24 30.3261 24 29C24 27.6739 24.5268 26.4021 25.4645 25.4645C26.4021 24.5268 27.6739 24 29 24C30.3261 24 31.5979 24.5268 32.5355 25.4645C33.4732 26.4021 34 27.6739 34 29Z" fill="black"/>
</g>
</svg>
