<svg width="19" height="17" viewBox="0 0 19 17" fill="none" xmlns="http://www.w3.org/2000/svg">
<path d="M13.7222 16.975V13.975H10.5556V11.975H13.7222V8.975H15.8333V11.975H19V13.975H15.8333V16.975H13.7222ZM0 14V12H2.11111V14H0ZM4.22222 14V12H8.52361C8.47083 12.35 8.44902 12.6833 8.45817 13C8.46731 13.3167 8.49793 13.65 8.55 14H4.22222ZM0 10V8H2.11111V10H0ZM4.22222 10V8H11.2417C10.837 8.26667 10.4722 8.56667 10.1471 8.9C9.82194 9.23333 9.53589 9.6 9.28889 10H4.22222ZM0 6V4H2.11111V6H0ZM4.22222 6V4H16.8889V6H4.22222ZM0 2V0H2.11111V2H0ZM4.22222 2V0H16.8889V2H4.22222Z" fill="black"/>
</svg>
